# Blender 4.3.2
# www.blender.org
mtllib sliding_scale.mtl
o Plane
v -0.962146 -14.308734 -0.000000
v 0.962146 -14.308734 -0.000000
v -0.962146 5.684977 0.000000
v 0.962146 5.684977 0.000000
v -1.442717 5.726156 0.000000
v 1.442717 5.726156 0.000000
v -1.442717 13.757443 0.000000
v 1.442717 13.757443 0.000000
v 1.442717 10.473058 0.000000
v -1.442717 10.473058 0.000000
v -5.341128 12.782763 0.000000
v -5.341128 11.447739 0.000000
v 1.442717 12.115251 0.000000
v -1.442717 12.115251 0.000000
v -5.341128 12.115251 0.000000
v 2.618585 13.357618 0.000000
v 2.618585 12.515076 0.000000
v 3.220191 13.008238 0.000000
v 3.220191 12.864456 0.000000
v -1.442717 7.060863 0.000000
v 1.442717 7.060863 0.000000
v -1.962287 6.151186 0.000000
v -1.962287 6.594654 0.000000
v 1.442717 8.401986 0.000000
v 1.442717 9.131935 0.000000
v -1.442717 9.131935 0.000000
v -1.442717 8.401986 0.000000
v 2.317781 8.401986 0.000000
v 2.317781 9.131935 0.000000
v -0.962146 -14.308734 -0.600000
v 0.962146 -14.308734 -0.600000
v -0.962146 5.684977 -0.600000
v 0.962146 5.684977 -0.600000
v -1.442717 5.722038 -0.600000
v 1.442717 5.722038 -0.600000
v -1.442717 13.757443 -0.600000
v 1.442717 13.757443 -0.600000
v 1.442717 10.473058 -0.600000
v -1.442717 10.473058 -0.600000
v -5.341128 12.782763 -0.599981
v -5.341128 11.447739 -0.599981
v 1.442717 12.115251 -0.600000
v -1.442717 12.115251 -0.600000
v -5.341128 12.115251 -0.600000
v 2.618585 13.357618 -0.600000
v 2.618585 12.515076 -0.600000
v 3.220191 13.008238 -0.600000
v 3.220191 12.864456 -0.600000
v -1.442717 7.060863 -0.600000
v 1.442717 7.060863 -0.600000
v -1.962287 6.151186 -0.600000
v -1.962287 6.594654 -0.600000
v 1.442717 8.401986 -0.600000
v 1.442717 9.131935 -0.600000
v -1.442717 9.131935 -0.600000
v -1.442717 8.401986 -0.600000
v 2.317781 8.401986 -0.600000
v 2.317781 9.131935 -0.600000
vn -0.0000 -0.0000 1.0000
vn -0.0000 -0.0000 -1.0000
vn -1.0000 -0.0000 -0.0000
vn -0.0000 -1.0000 -0.0000
vn 1.0000 -0.0000 -0.0000
vn 0.0811 -0.9967 0.0034
vn -0.0811 -0.9967 0.0034
vn -0.0000 1.0000 -0.0000
vn -0.2426 -0.9701 -0.0000
vn -0.2426 0.9701 -0.0000
vn 0.3219 0.9468 -0.0000
vn 0.3219 -0.9468 -0.0000
vn 0.5022 0.8648 -0.0000
vn 0.5022 -0.8648 -0.0000
vn -0.6350 -0.7725 0.0026
vn -0.6679 0.7443 -0.0000
vt 0.760053 0.004570
vt 0.843150 0.003910
vt 0.854822 0.697926
vt 0.771726 0.698587
vt 0.761459 0.705057
vt 0.857885 0.705057
vt 0.882528 0.706299
vt 0.736913 0.706299
vt 0.736913 0.926133
vt 0.882528 0.926133
vt 0.882528 0.974881
vt 0.736913 0.974880
vt 0.736913 0.816199
vt 0.882528 0.816199
vt 0.882528 0.877386
vt 0.736913 0.877386
vt 0.540177 0.945948
vt 0.540177 0.926133
vt 0.540177 0.906318
vt 0.941869 0.938002
vt 0.941869 0.963012
vt 0.972229 0.948373
vt 0.972229 0.952641
vt 0.882528 0.745919
vt 0.736913 0.745919
vt 0.710692 0.732080
vt 0.710692 0.718916
vt 0.882528 0.794531
vt 0.736913 0.794531
vt 0.926689 0.794531
vt 0.926689 0.816199
vt 0.221900 0.006954
vt 0.233727 0.697384
vt 0.150630 0.698057
vt 0.138803 0.007627
vt 0.190737 0.348751
vt 0.168337 0.346977
vt 0.292934 0.346977
vt 0.269938 0.348751
vt 0.266524 0.927741
vt 0.266524 0.984109
vt 0.119443 0.984109
vt 0.119443 0.927741
vt 0.266524 0.820308
vt 0.266524 0.871372
vt 0.119443 0.871372
vt 0.119443 0.820308
vt 0.465239 0.927741
vt 0.465239 0.950653
vt 0.465239 0.904828
vt 0.059505 0.970385
vt 0.059505 0.941465
vt 0.028839 0.958393
vt 0.028839 0.953457
vt 0.266524 0.703263
vt 0.266524 0.749218
vt 0.119443 0.749218
vt 0.119443 0.703263
vt 0.293008 0.717993
vt 0.293008 0.733215
vt 0.266524 0.795253
vt 0.119443 0.795252
vt 0.074838 0.820308
vt 0.074838 0.795252
vt 0.224195 0.461978
vt 0.108730 0.794423
vt 0.108730 0.821113
vt 0.086792 0.821113
vt 0.086792 0.794423
vt 0.105396 0.799006
vt 0.105396 0.820845
vt 0.079484 0.820845
vt 0.079484 0.799006
vt 0.108300 0.795271
vt 0.108300 0.819495
vt 0.082388 0.819495
vt 0.082388 0.795271
s 0
usemtl Material.001
f 1/1/1 2/2/1 4/3/1 3/4/1
f 3/5/1 4/6/1 6/7/1 5/8/1
f 14/9/1 13/10/1 8/11/1 7/12/1
f 26/13/1 25/14/1 9/15/1 10/16/1
f 14/9/1 7/12/1 11/17/1 15/18/1
f 10/16/1 14/9/1 15/18/1 12/19/1
f 10/16/1 9/15/1 13/10/1 14/9/1
f 8/11/1 13/10/1 17/20/1 16/21/1
f 16/21/1 17/20/1 19/22/1 18/23/1
f 5/8/1 6/7/1 21/24/1 20/25/1
f 5/8/1 20/25/1 23/26/1 22/27/1
f 20/25/1 21/24/1 24/28/1 27/29/1
f 27/29/1 24/28/1 25/14/1 26/13/1
f 25/14/1 24/28/1 28/30/1 29/31/1
f 30/32/2 32/33/2 33/34/2 31/35/2
f 32/36/2 34/37/2 35/38/2 33/39/2
f 43/40/2 36/41/2 37/42/2 42/43/2
f 55/44/2 39/45/2 38/46/2 54/47/2
f 43/40/2 44/48/2 40/49/2 36/41/2
f 39/45/2 41/50/2 44/48/2 43/40/2
f 39/45/2 43/40/2 42/43/2 38/46/2
f 37/42/2 45/51/2 46/52/2 42/43/2
f 45/51/2 47/53/2 48/54/2 46/52/2
f 34/55/2 49/56/2 50/57/2 35/58/2
f 34/55/2 51/59/2 52/60/2 49/56/2
f 49/56/2 56/61/2 53/62/2 50/57/2
f 56/61/2 55/44/2 54/47/2 53/62/2
f 54/47/2 58/63/2 57/64/2 53/62/2
f 1/65/3 3/65/3 32/65/3 30/65/3
f 2/65/4 1/65/4 30/65/4 31/65/4
f 4/65/5 2/65/5 31/65/5 33/65/5
f 6/65/6 4/65/6 33/65/6 35/65/6
f 3/65/7 5/65/7 34/65/7 32/65/7
f 7/65/8 8/65/8 37/65/8 36/65/8
f 9/65/5 25/65/5 54/65/5 38/65/5
f 12/65/3 15/65/3 44/65/3 41/65/3
f 10/65/9 12/65/9 41/65/9 39/65/9
f 11/65/10 7/65/10 36/65/10 40/65/10
f 13/65/5 9/65/5 38/65/5 42/65/5
f 15/65/3 11/65/3 40/65/3 44/65/3
f 8/65/11 16/65/11 45/65/11 37/65/11
f 17/65/12 13/65/12 42/65/12 46/65/12
f 18/65/5 19/65/5 48/65/5 47/65/5
f 16/65/13 18/65/13 47/65/13 45/65/13
f 19/65/14 17/65/14 46/65/14 48/65/14
f 20/65/3 27/65/3 56/65/3 49/65/3
f 21/65/5 6/65/5 35/65/5 50/65/5
f 22/65/3 23/65/3 52/65/3 51/65/3
f 5/65/15 22/65/15 51/65/15 34/65/15
f 23/65/16 20/65/16 49/65/16 52/65/16
f 24/65/5 21/65/5 50/65/5 53/65/5
f 26/65/3 10/65/3 39/65/3 55/65/3
f 27/65/3 26/65/3 55/65/3 56/65/3
f 29/66/5 28/67/5 57/68/5 58/69/5
f 25/70/8 29/71/8 58/72/8 54/73/8
f 28/74/4 24/75/4 53/76/4 57/77/4
