# Blender v3.0.1 OBJ File: 'wrench.blend'
# www.blender.org
mtllib wrench.mtl
o Plane
v -0.635737 -5.188249 -0.000000
v 0.635737 -5.188249 -0.000000
v -0.635737 7.094635 0.001056
v 0.635737 7.094635 0.001056
v -0.955103 -6.527097 -0.000000
v 0.955103 -6.527097 -0.000000
v -0.277092 -7.865945 -0.000000
v 0.228963 -7.962204 -0.000000
v -1.516611 -7.184863 -0.000000
v -0.830578 -8.042418 -0.000000
v -1.652977 -8.035145 -0.000000
v -0.942879 -8.355258 -0.000000
v -1.364201 -9.246396 -0.000000
v -1.151439 -9.365971 -0.000000
v 1.628912 -7.505724 -0.000000
v 0.485652 -8.218893 -0.000000
v 1.540675 -8.604673 -0.000000
v 0.646083 -8.836551 -0.000000
v 0.738522 -9.615386 -0.000000
v 0.405437 -9.791113 -0.000000
v 0.670147 -8.463550 -0.000000
v 1.689073 -7.991026 -0.000000
v -0.848904 7.763693 -0.094647
v 0.848904 7.763693 -0.094647
v -0.410717 8.179594 -0.154138
v 0.410717 8.197677 -0.156724
v -1.106185 8.292829 -0.170335
v -0.774504 8.437054 -0.190965
v -1.170481 8.888358 -0.255520
v -0.920275 8.890318 -0.255801
v -0.935670 9.464398 -0.337918
v -0.789751 9.272658 -0.310491
v -0.290836 9.817936 -0.388488
v -0.238116 9.588180 -0.355623
v 0.436203 9.797262 -0.385531
v 0.359182 9.599812 -0.357287
v 0.973124 9.354950 -0.322262
v 0.762996 9.255528 -0.308041
v 1.140363 8.902889 -0.257599
v 0.869759 8.893869 -0.256309
v 1.100452 8.222490 -0.160274
v 0.745269 8.426020 -0.189387
v -0.635737 -5.188232 -0.560000
v 0.635737 -5.188232 -0.560000
v -0.635737 7.051396 -0.557269
v 0.635737 7.051396 -0.557269
v -0.955103 -6.527097 -0.560000
v 0.955103 -6.527097 -0.560000
v -0.277092 -7.865945 -0.559983
v 0.228963 -7.962204 -0.560000
v -1.516611 -7.184863 -0.560000
v -0.830578 -8.042418 -0.560000
v -1.652977 -8.035145 -0.559983
v -0.942879 -8.355258 -0.560000
v -1.364201 -9.246396 -0.560000
v -1.151439 -9.365971 -0.560000
v 1.628912 -7.505724 -0.560000
v 0.485652 -8.218893 -0.560000
v 1.540675 -8.604673 -0.560000
v 0.646083 -8.836551 -0.559983
v 0.738522 -9.615386 -0.559983
v 0.405437 -9.791113 -0.560000
v 0.670147 -8.463550 -0.560000
v 1.689073 -7.991026 -0.560000
v -0.848904 7.684411 -0.648990
v 0.848904 7.684411 -0.648990
v -0.410717 8.100312 -0.708481
v 0.410717 8.118395 -0.711067
v -1.106185 8.213547 -0.724678
v -0.774504 8.357772 -0.745308
v -1.170481 8.809076 -0.809863
v -0.920275 8.811036 -0.810144
v -0.935670 9.385117 -0.892261
v -0.789751 9.193377 -0.864834
v -0.290836 9.738654 -0.942831
v -0.238116 9.508898 -0.909967
v 0.436203 9.717980 -0.939874
v 0.359182 9.520530 -0.911631
v 0.973124 9.275668 -0.876605
v 0.762996 9.176247 -0.862384
v 1.140363 8.823607 -0.811942
v 0.869759 8.814588 -0.810652
v 1.100452 8.143209 -0.714617
v 0.745269 8.346738 -0.743730
vt 0.242300 0.233493
vt 0.303690 0.233017
vt 0.299612 0.861189
vt 0.239892 0.861652
vt 0.226380 0.168970
vt 0.318609 0.168256
vt 0.258615 0.104074
vt 0.283012 0.099237
vt 0.199023 0.137421
vt 0.231826 0.095760
vt 0.192121 0.096419
vt 0.226287 0.080698
vt 0.205611 0.037829
vt 0.215839 0.031977
vt 0.295310 0.086748
vt 0.350776 0.120754
vt 0.353499 0.097300
vt 0.304126 0.074866
vt 0.302825 0.056866
vt 0.346104 0.067727
vt 0.290849 0.010868
vt 0.306997 0.019228
vt 0.309870 0.892857
vt 0.230125 0.893475
vt 0.289448 0.913608
vt 0.250859 0.913049
vt 0.233867 0.925397
vt 0.218235 0.918674
vt 0.227187 0.946956
vt 0.215434 0.946954
vt 0.233458 0.965049
vt 0.226675 0.974200
vt 0.259484 0.979819
vt 0.257092 0.990740
vt 0.287543 0.980154
vt 0.291233 0.989495
vt 0.306383 0.963672
vt 0.316289 0.968313
vt 0.311265 0.946473
vt 0.323978 0.946803
vt 0.305246 0.924320
vt 0.321854 0.914534
vt 0.121966 0.221532
vt 0.136243 0.850193
vt 0.069204 0.850411
vt 0.059841 0.221720
vt 0.044024 0.160881
vt 0.137358 0.160599
vt 0.079276 0.095511
vt 0.104017 0.099814
vt 0.131033 0.091707
vt 0.164690 0.130603
vt 0.136471 0.077464
vt 0.171218 0.091916
vt 0.146501 0.031470
vt 0.156915 0.036876
vt 0.010945 0.116477
vt 0.066693 0.083876
vt 0.007929 0.094416
vt 0.015082 0.066488
vt 0.058756 0.055811
vt 0.057639 0.072777
vt 0.054116 0.020407
vt 0.070363 0.012366
vt 0.142707 0.873881
vt 0.059959 0.874172
vt 0.123060 0.885608
vt 0.079753 0.886712
vt 0.161249 0.912020
vt 0.142286 0.899259
vt 0.158458 0.941528
vt 0.151550 0.943875
vt 0.152461 0.974449
vt 0.144734 0.964262
vt 0.118523 0.993390
vt 0.115704 0.981162
vt 0.080186 0.992413
vt 0.084213 0.981883
vt 0.051801 0.968947
vt 0.062862 0.963615
vt 0.042905 0.944898
vt 0.057171 0.944371
vt 0.044891 0.908652
vt 0.062154 0.898931
vt 0.102120 0.374374
vt 0.124578 0.741576
vt 0.110375 0.740182
vt 0.087809 0.372413
vt 0.253008 0.758075
vt 0.271761 0.373924
vt 0.282675 0.372329
vt 0.263869 0.756819
vt 0.111322 0.333380
vt 0.097043 0.326059
vt 0.265920 0.330376
vt 0.276945 0.324863
vt 0.095070 0.106556
vt 0.106662 0.109102
vt 0.103031 0.117980
vt 0.096619 0.117008
vt 0.120795 0.308758
vt 0.107540 0.304529
vt 0.116771 0.116619
vt 0.108559 0.122826
vt 0.124578 0.280784
vt 0.110578 0.280064
vt 0.120576 0.123719
vt 0.109852 0.128047
vt 0.124076 0.146276
vt 0.124705 0.151350
vt 0.112745 0.152757
vt 0.112007 0.147809
vt 0.121693 0.239174
vt 0.106170 0.241399
vt 0.086964 0.109694
vt 0.091722 0.118991
vt 0.257574 0.293260
vt 0.267935 0.289380
vt 0.076192 0.119779
vt 0.081282 0.113939
vt 0.087917 0.121542
vt 0.084410 0.126659
vt 0.256015 0.275480
vt 0.266967 0.275107
vt 0.060253 0.142079
vt 0.065118 0.136251
vt 0.074260 0.143815
vt 0.068605 0.148313
vt 0.257763 0.251588
vt 0.271377 0.214199
vt 0.279730 0.224662
vt 0.268844 0.257118
vt 0.255254 0.782617
vt 0.267187 0.777945
vt 0.121317 0.764751
vt 0.105919 0.760165
vt 0.109413 0.962723
vt 0.082443 0.959668
vt 0.090299 0.945263
vt 0.105835 0.948685
vt 0.123646 0.956145
vt 0.113137 0.944647
vt 0.117401 0.786070
vt 0.100243 0.779187
vt 0.133806 0.940328
vt 0.116867 0.936425
vt 0.112179 0.811640
vt 0.097038 0.805231
vt 0.133806 0.922703
vt 0.115563 0.928366
vt 0.102633 0.833330
vt 0.090786 0.820225
vt 0.115480 0.899246
vt 0.105992 0.920039
vt 0.080392 0.850067
vt 0.075894 0.829051
vt 0.086804 0.899435
vt 0.093951 0.918214
vt 0.304008 0.878471
vt 0.282252 0.877731
vt 0.287441 0.854058
vt 0.300542 0.856153
vt 0.069077 0.914997
vt 0.085156 0.924110
vt 0.266773 0.855214
vt 0.277427 0.842414
vt 0.064720 0.930645
vt 0.082325 0.931164
vt 0.261402 0.835251
vt 0.273735 0.828491
vt 0.070527 0.949708
vt 0.083853 0.940191
vt 0.257738 0.803047
vt 0.271380 0.796181
vn 0.0000 -0.0001 1.0000
vn 0.0000 0.0000 1.0000
vn 0.0000 0.1416 0.9899
vn 0.0000 0.0002 -1.0000
vn 0.0000 0.0000 -1.0000
vn 0.0000 -0.1434 -0.9897
vn 0.0000 -0.1416 -0.9899
vn -1.0000 0.0000 0.0000
vn 1.0000 0.0000 0.0000
vn -0.9727 0.2320 0.0000
vn 0.9727 0.2320 0.0000
vn -0.1869 -0.9824 0.0000
vn -0.7606 0.6493 0.0000
vn 0.3038 -0.9527 0.0000
vn -0.9874 0.1584 0.0000
vn 0.9412 -0.3379 0.0000
vn -0.4899 -0.8718 0.0000
vn -0.9727 -0.2319 0.0000
vn 0.9794 -0.2021 0.0000
vn -0.7071 -0.7071 0.0000
vn 0.8236 0.5671 0.0000
vn -0.9979 0.0644 0.0000
vn 0.9924 0.1230 0.0000
vn 0.4666 -0.8845 0.0000
vn -0.9697 0.2445 0.0000
vn 0.7833 -0.6217 0.0000
vn -0.7984 -0.6021 0.0000
vn 0.9720 -0.2351 0.0000
vn 0.9512 -0.3066 0.0338
vn -0.9512 -0.3066 0.0338
vn -0.0222 0.9897 -0.1415
vn 0.5816 0.8053 -0.1152
vn -0.9011 -0.4293 0.0614
vn 0.9529 0.3003 -0.0429
vn -0.9943 -0.1052 0.0150
vn 0.9474 -0.3169 0.0453
vn -0.9273 0.3704 -0.0530
vn 0.5003 -0.8571 0.1226
vn -0.4845 0.8660 -0.1239
vn 0.0197 -0.9897 0.1416
vn 0.0287 0.9895 -0.1415
vn -0.6526 -0.7501 0.1073
vn 0.6397 0.7609 -0.1088
vn -0.9599 -0.2777 0.0397
vn 0.9390 0.3404 -0.0487
vn -0.9670 0.2522 -0.0361
vn 0.9983 -0.0574 0.0082
vn 0.8789 -0.4722 0.0675
vn -0.5676 0.8150 -0.1166
usemtl Material.001
s off
f 1/1/1 2/2/1 4/3/1 3/4/1
f 2/2/2 1/1/2 5/5/2 6/6/2
f 6/6/2 5/5/2 7/7/2 8/8/2
f 7/7/2 5/5/2 9/9/2 10/10/2
f 10/10/2 9/9/2 11/11/2 12/12/2
f 12/12/2 11/11/2 13/13/2 14/14/2
f 6/6/2 8/8/2 16/15/2 15/16/2
f 22/17/2 21/18/2 18/19/2 17/20/2
f 17/20/2 18/19/2 20/21/2 19/22/2
f 15/16/2 16/15/2 21/18/2 22/17/2
f 3/4/3 4/3/3 24/23/3 23/24/3
f 23/24/3 24/23/3 26/25/3 25/26/3
f 23/24/3 25/26/3 28/27/3 27/28/3
f 27/28/3 28/27/3 30/29/3 29/30/3
f 29/30/3 30/29/3 32/31/3 31/32/3
f 31/32/3 32/31/3 34/33/3 33/34/3
f 33/34/3 34/33/3 36/35/3 35/36/3
f 35/36/3 36/35/3 38/37/3 37/38/3
f 37/38/3 38/37/3 40/39/3 39/40/3
f 39/40/3 40/39/3 42/41/3 41/42/3
f 24/23/3 41/42/3 42/41/3 26/25/3
f 43/43/4 45/44/4 46/45/4 44/46/4
f 44/46/5 48/47/5 47/48/5 43/43/5
f 48/47/5 50/49/5 49/50/5 47/48/5
f 49/50/5 52/51/5 51/52/5 47/48/5
f 52/51/5 54/53/5 53/54/5 51/52/5
f 54/53/5 56/55/5 55/56/5 53/54/5
f 48/47/5 57/57/5 58/58/5 50/49/5
f 64/59/5 59/60/5 60/61/5 63/62/5
f 59/60/5 61/63/5 62/64/5 60/61/5
f 57/57/5 64/59/5 63/62/5 58/58/5
f 45/44/6 65/65/6 66/66/6 46/45/6
f 65/65/7 67/67/7 68/68/7 66/66/7
f 65/65/7 69/69/7 70/70/7 67/67/7
f 69/69/7 71/71/7 72/72/7 70/70/7
f 71/71/7 73/73/7 74/74/7 72/72/7
f 73/73/7 75/75/7 76/76/7 74/74/7
f 75/75/7 77/77/7 78/78/7 76/76/7
f 77/77/7 79/79/7 80/80/7 78/78/7
f 79/79/7 81/81/7 82/82/7 80/80/7
f 81/81/7 83/83/7 84/84/7 82/82/7
f 66/66/7 68/68/7 84/84/7 83/83/7
f 1/85/8 3/86/8 45/87/8 43/88/8
f 4/89/9 2/90/9 44/91/9 46/92/9
f 5/93/10 1/85/10 43/88/10 47/94/10
f 2/90/11 6/95/11 48/96/11 44/91/11
f 8/97/12 7/98/12 49/99/12 50/100/12
f 9/101/13 5/93/13 47/94/13 51/102/13
f 7/98/14 10/103/14 52/104/14 49/99/14
f 11/105/15 9/101/15 51/102/15 53/106/15
f 10/103/16 12/107/16 54/108/16 52/104/16
f 14/109/17 13/110/17 55/111/17 56/112/17
f 13/113/18 11/105/18 53/106/18 55/114/18
f 12/107/19 14/109/19 56/112/19 54/108/19
f 16/115/20 8/97/20 50/100/20 58/116/20
f 6/95/21 15/117/21 57/118/21 48/96/21
f 18/119/22 21/120/22 63/121/22 60/122/22
f 15/117/23 22/123/23 64/124/23 57/118/23
f 19/125/24 20/126/24 62/127/24 61/128/24
f 20/126/25 18/119/25 60/122/25 62/127/25
f 17/129/26 19/130/26 61/131/26 59/132/26
f 21/120/27 16/115/27 58/116/27 63/121/27
f 22/123/28 17/129/28 59/132/28 64/124/28
f 24/133/29 4/89/29 46/92/29 66/134/29
f 3/86/30 23/135/30 65/136/30 45/87/30
f 25/137/31 26/138/31 68/139/31 67/140/31
f 28/141/32 25/137/32 67/140/32 70/142/32
f 23/135/33 27/143/33 69/144/33 65/136/33
f 30/145/34 28/141/34 70/142/34 72/146/34
f 27/143/35 29/147/35 71/148/35 69/144/35
f 32/149/36 30/145/36 72/146/36 74/150/36
f 29/147/37 31/151/37 73/152/37 71/148/37
f 34/153/38 32/149/38 74/150/38 76/154/38
f 31/151/39 33/155/39 75/156/39 73/152/39
f 36/157/40 34/153/40 76/154/40 78/158/40
f 33/159/41 35/160/41 77/161/41 75/162/41
f 38/163/42 36/157/42 78/158/42 80/164/42
f 35/160/43 37/165/43 79/166/43 77/161/43
f 40/167/44 38/163/44 80/164/44 82/168/44
f 37/165/45 39/169/45 81/170/45 79/166/45
f 42/171/46 40/167/46 82/168/46 84/172/46
f 39/169/47 41/173/47 83/174/47 81/170/47
f 41/173/48 24/133/48 66/134/48 83/174/48
f 26/138/49 42/171/49 84/172/49 68/139/49
