# Blender v3.0.1 OBJ File: 'rubik.blend'
# www.blender.org
mtllib rubik.mtl
o Cube_Cube.001
v -1.905167 -2.000000 1.905167
v -1.905167 -1.905167 2.000000
v -2.000000 -1.905167 1.905167
v -1.905167 1.905167 2.000000
v -1.905167 2.000000 1.905167
v -2.000000 1.905167 1.905167
v -1.905167 -2.000000 -1.905167
v -2.000000 -1.905167 -1.905167
v -1.905167 -1.905167 -2.000000
v -1.905167 2.000000 -1.905167
v -1.905167 1.905167 -2.000000
v -2.000000 1.905167 -1.905167
v 1.905167 -2.000000 1.905167
v 2.000000 -1.905167 1.905167
v 1.905167 -1.905167 2.000000
v 1.905167 2.000000 1.905167
v 1.905167 1.905167 2.000000
v 2.000000 1.905167 1.905167
v 1.905167 -2.000000 -1.905167
v 1.905167 -1.905167 -2.000000
v 2.000000 -1.905167 -1.905167
v 1.905167 2.000000 -1.905167
v 2.000000 1.905167 -1.905167
v 1.905167 1.905167 -2.000000
vt 0.325199 0.014443
vt 0.325199 0.331590
vt 0.008051 0.331590
vt 0.008051 0.014443
vt 0.627905 0.970783
vt 0.333998 0.970783
vt 0.333998 0.676876
vt 0.627905 0.676876
vt 0.325219 0.660182
vt 0.008072 0.660182
vt 0.008072 0.343035
vt 0.325219 0.343035
vt 0.314318 0.671416
vt 0.314318 0.976244
vt 0.009491 0.976244
vt 0.009491 0.671416
vt 0.339983 0.653667
vt 0.339983 0.355815
vt 0.637835 0.355815
vt 0.637835 0.653667
vt 0.008051 0.006549
vt 0.008051 0.006549
vt 0.000158 0.014443
vt 0.008051 0.339483
vt 0.000158 0.331590
vt 0.009491 0.663829
vt 0.009491 0.663829
vt 0.001904 0.671416
vt 0.339983 0.348402
vt 0.339983 0.348402
vt 0.332570 0.355815
vt 0.635219 0.676876
vt 0.635219 0.676876
vt 0.627905 0.669562
vt 0.325199 0.339483
vt 0.325199 0.339483
vt 0.333092 0.331590
vt 0.637835 0.661080
vt 0.637835 0.661080
vt 0.645248 0.653667
vt 0.326683 0.970783
vt 0.326683 0.970783
vt 0.333998 0.978098
vt 0.314318 0.663829
vt 0.321905 0.671416
vt 0.321905 0.976244
vt 0.314318 0.983830
vt 0.009491 0.983830
vt 0.001904 0.976244
vt 0.339983 0.661080
vt 0.637835 0.348402
vt 0.645248 0.355815
vt 0.635219 0.970783
vt 0.326683 0.676876
vt 0.333998 0.669562
vt 0.325199 0.006549
vt 0.339117 0.021637
vt 0.638701 0.021637
vt 0.638701 0.321221
vt 0.339117 0.321221
vn 0.0000 0.0000 1.0000
vn 1.0000 0.0000 0.0000
vn 0.0000 1.0000 0.0000
vn -1.0000 0.0000 0.0000
vn 0.0000 0.0000 -1.0000
vn -0.5774 -0.5774 0.5774
vn -0.5774 0.5774 0.5774
vn -0.5774 -0.5774 -0.5774
vn -0.5774 0.5774 -0.5774
vn 0.5774 -0.5774 0.5774
vn 0.5774 0.5774 0.5774
vn 0.5774 -0.5774 -0.5774
vn 0.5774 0.5774 -0.5774
vn -0.7071 -0.7071 0.0000
vn -0.7071 0.0000 0.7071
vn -0.7071 0.7071 0.0000
vn -0.7071 0.0000 -0.7071
vn 0.0000 -0.7071 -0.7071
vn 0.0000 0.7071 -0.7071
vn 0.7071 0.0000 -0.7071
vn 0.7071 -0.7071 0.0000
vn 0.7071 0.7071 0.0000
vn 0.7071 0.0000 0.7071
vn 0.0000 -0.7071 0.7071
vn 0.0000 0.7071 0.7071
vn 0.0000 -1.0000 0.0000
usemtl Material.001
s off
f 15/1/1 17/2/1 4/3/1 2/4/1
f 21/5/2 23/6/2 18/7/2 14/8/2
f 22/9/3 10/10/3 5/11/3 16/12/3
f 3/13/4 6/14/4 12/15/4 8/16/4
f 9/17/5 11/18/5 24/19/5 20/20/5
f 1/21/6 2/22/6 3/23/6
f 4/3/7 5/24/7 6/25/7
f 7/26/8 8/27/8 9/28/8
f 10/29/9 11/30/9 12/31/9
f 13/32/10 14/33/10 15/34/10
f 16/35/11 17/36/11 18/37/11
f 19/38/12 20/39/12 21/40/12
f 22/41/13 23/42/13 24/43/13
f 7/26/14 1/44/14 3/13/14 8/16/14
f 2/45/15 4/46/15 6/14/15 3/13/15
f 5/47/16 10/48/16 12/15/16 6/14/16
f 11/49/17 9/28/17 8/16/17 12/15/17
f 19/38/18 7/50/18 9/17/18 20/20/18
f 10/29/19 22/51/19 24/19/19 11/18/19
f 23/52/20 21/40/20 20/20/20 24/19/20
f 13/32/21 19/53/21 21/5/21 14/8/21
f 22/41/22 16/54/22 18/7/22 23/6/22
f 17/55/23 15/34/23 14/8/23 18/7/23
f 1/21/24 13/56/24 15/1/24 2/4/24
f 16/35/25 5/24/25 4/3/25 17/2/25
f 7/57/26 19/58/26 13/59/26 1/60/26
