# Blender v3.0.1 OBJ File: 'uhu.blend'
# www.blender.org
mtllib uhu.mtl
o Cube_Cube.001
v -6.269858 -1.635357 2.036159
v -6.269858 1.635357 2.036159
v -6.269858 -1.635357 -2.036159
v -6.269858 1.635357 -2.036159
v 6.269858 -1.635357 2.036159
v 6.269858 1.635357 2.036159
v 6.269858 -1.635357 -2.036159
v 6.269858 1.635357 -2.036159
vt 0.601548 0.250000
vt 0.326452 0.250000
vt 0.326452 0.000000
vt 0.601548 0.000000
vt 0.009398 0.510000
vt 0.009398 0.260000
vt 0.986602 0.260000
vt 0.986602 0.510000
vt 0.006261 0.004622
vt 0.305739 0.004622
vt 0.305739 0.245378
vt 0.006261 0.245378
vt 0.988860 0.256444
vt 0.988860 0.517556
vt 0.007140 0.517556
vt 0.007140 0.256444
vt 0.006140 0.775089
vt 0.993860 0.775089
vt 0.993860 0.994911
vt 0.006140 0.994911
vt 0.992045 0.759787
vt 0.003955 0.759787
vt 0.003955 0.530213
vt 0.992045 0.530213
vn -1.0000 0.0000 0.0000
vn 0.0000 0.0000 -1.0000
vn 1.0000 0.0000 0.0000
vn 0.0000 0.0000 1.0000
vn 0.0000 -1.0000 0.0000
vn 0.0000 1.0000 0.0000
usemtl Material.001
s off
f 1/1/1 2/2/1 4/3/1 3/4/1
f 3/5/2 4/6/2 8/7/2 7/8/2
f 7/9/3 8/10/3 6/11/3 5/12/3
f 5/13/4 6/14/4 2/15/4 1/16/4
f 3/17/5 7/18/5 5/19/5 1/20/5
f 8/21/6 4/22/6 2/23/6 6/24/6
